<svg width="254" height="143" viewBox="0 0 254 143" fill="none" xmlns="http://www.w3.org/2000/svg">
<path d="M221.9 99.54C221.9 99.54 151.58 101.44 126.8 101.44C104.03 101.44 31.7 99.54 31.7 99.54C14.19 99.54 0 85.35 0 67.84V34.24C0 16.73 14.19 2.54 31.7 2.54C31.7 2.54 113.75 0 129.97 0C161.3 0 221.9 2.54 221.9 2.54C239.41 2.54 253.6 16.73 253.6 34.24V67.84C253.6 85.35 239.41 99.54 221.9 99.54Z" fill="white"/>
<path d="M24.09 72.28C24.09 72.28 48.27 111.73 13.38 136.57C11.99 137.56 11.66 139.5 12.66 140.89C13.42 141.95 14.75 142.42 16.01 142.08C42.84 134.73 86.66 116.15 94.48 72.29H24.1L24.09 72.28Z" fill="white"/>
<path d="M56.95 62.61C56.95 62.76 56.9 62.9 56.8 63.02C56.7 63.14 56.54 63.24 56.31 63.31C56.08 63.39 55.78 63.45 55.4 63.49C55.02 63.54 54.54 63.56 53.97 63.56C53.4 63.56 52.89 63.54 52.51 63.49C52.12 63.44 51.82 63.38 51.6 63.31C51.38 63.23 51.22 63.14 51.12 63.02C51.02 62.9 50.97 62.76 50.97 62.61V50.73H39.98V62.61C39.98 62.76 39.93 62.9 39.84 63.02C39.75 63.14 39.59 63.24 39.36 63.31C39.13 63.39 38.83 63.45 38.45 63.49C38.07 63.53 37.59 63.56 37 63.56C36.41 63.56 35.94 63.54 35.56 63.49C35.17 63.44 34.87 63.38 34.64 63.31C34.41 63.23 34.25 63.14 34.15 63.02C34.05 62.9 34 62.76 34 62.61V34.86C34 34.71 34.05 34.57 34.15 34.45C34.25 34.33 34.41 34.23 34.64 34.15C34.87 34.07 35.17 34.01 35.56 33.97C35.95 33.92 36.43 33.9 37 33.9C37.57 33.9 38.07 33.92 38.45 33.97C38.83 34.02 39.13 34.08 39.36 34.15C39.59 34.23 39.75 34.32 39.84 34.45C39.93 34.58 39.98 34.71 39.98 34.86V45.65H50.97V34.86C50.97 34.71 51.02 34.57 51.12 34.45C51.22 34.33 51.38 34.23 51.6 34.15C51.82 34.07 52.12 34.01 52.51 33.97C52.9 33.92 53.38 33.9 53.97 33.9C54.56 33.9 55.02 33.92 55.4 33.97C55.78 34.02 56.08 34.08 56.31 34.15C56.54 34.23 56.7 34.32 56.8 34.45C56.9 34.57 56.95 34.71 56.95 34.86V62.61Z" fill="#079B9B"/>
<path d="M81.73 51.94C81.73 52.64 81.57 53.15 81.26 53.48C80.95 53.81 80.52 53.98 79.98 53.98H67.65C67.65 54.84 67.75 55.63 67.96 56.33C68.16 57.03 68.49 57.63 68.94 58.12C69.39 58.61 69.96 58.99 70.67 59.24C71.37 59.5 72.22 59.63 73.2 59.63C74.18 59.63 75.08 59.56 75.83 59.41C76.59 59.27 77.24 59.11 77.79 58.93C78.34 58.76 78.8 58.6 79.16 58.45C79.52 58.31 79.82 58.23 80.05 58.23C80.19 58.23 80.3 58.26 80.39 58.31C80.48 58.36 80.56 58.46 80.62 58.59C80.68 58.73 80.72 58.92 80.74 59.17C80.76 59.42 80.77 59.73 80.77 60.11C80.77 60.44 80.77 60.73 80.75 60.96C80.73 61.19 80.71 61.4 80.68 61.56C80.65 61.73 80.6 61.87 80.54 61.98C80.48 62.09 80.4 62.2 80.3 62.31C80.2 62.42 79.93 62.56 79.49 62.74C79.05 62.92 78.49 63.1 77.81 63.27C77.13 63.44 76.35 63.6 75.47 63.72C74.59 63.85 73.65 63.91 72.65 63.91C70.85 63.91 69.27 63.68 67.92 63.23C66.57 62.78 65.43 62.09 64.52 61.16C63.61 60.24 62.93 59.07 62.49 57.66C62.04 56.25 61.82 54.6 61.82 52.71C61.82 50.82 62.05 49.29 62.52 47.84C62.99 46.39 63.67 45.17 64.56 44.16C65.45 43.15 66.54 42.39 67.82 41.85C69.1 41.32 70.54 41.06 72.15 41.06C73.85 41.06 75.3 41.31 76.5 41.81C77.7 42.31 78.69 43 79.46 43.89C80.23 44.78 80.8 45.82 81.16 47.04C81.52 48.25 81.71 49.57 81.71 50.99V51.9L81.73 51.94ZM76.19 50.3C76.24 48.7 75.91 47.44 75.23 46.52C74.54 45.6 73.48 45.15 72.04 45.15C71.31 45.15 70.68 45.29 70.14 45.56C69.6 45.83 69.16 46.2 68.8 46.66C68.44 47.12 68.17 47.67 67.98 48.3C67.79 48.93 67.68 49.6 67.65 50.31H76.19V50.3Z" fill="#079B9B"/>
<path d="M97.74 63.43L95.29 70.61C95.15 70.99 94.78 71.26 94.18 71.43C93.57 71.6 92.69 71.68 91.52 71.68C90.91 71.68 90.43 71.65 90.07 71.6C89.71 71.55 89.43 71.46 89.25 71.34C89.07 71.22 88.97 71.07 88.95 70.89C88.93 70.71 88.98 70.49 89.09 70.23L91.79 63.44C91.59 63.35 91.42 63.21 91.26 63.02C91.1 62.83 90.98 62.63 90.91 62.42L83.94 43.8C83.74 43.27 83.64 42.87 83.64 42.59C83.64 42.31 83.73 42.09 83.91 41.93C84.09 41.77 84.4 41.66 84.83 41.6C85.26 41.54 85.83 41.51 86.54 41.51C87.19 41.51 87.71 41.52 88.08 41.54C88.46 41.56 88.75 41.62 88.97 41.71C89.18 41.8 89.34 41.94 89.45 42.13C89.56 42.32 89.66 42.59 89.77 42.94L94.54 56.5H94.61L98.97 42.67C99.06 42.28 99.18 42.02 99.32 41.89C99.46 41.76 99.7 41.67 100.04 41.61C100.37 41.55 100.96 41.52 101.79 41.52C102.44 41.52 102.98 41.55 103.41 41.61C103.84 41.67 104.16 41.78 104.36 41.95C104.56 42.12 104.67 42.34 104.67 42.62C104.67 42.9 104.61 43.23 104.49 43.61L97.75 63.46L97.74 63.43Z" fill="#079B9B"/>
<path d="M136.29 54.62C136.29 56.16 136 57.52 135.43 58.68C134.85 59.85 134.08 60.82 133.09 61.6C132.11 62.38 130.96 62.97 129.64 63.36C128.32 63.75 126.92 63.95 125.42 63.95C124.41 63.95 123.46 63.87 122.59 63.7C121.72 63.53 120.95 63.33 120.28 63.1C119.61 62.87 119.06 62.62 118.61 62.36C118.16 62.1 117.84 61.88 117.65 61.68C117.45 61.48 117.31 61.2 117.23 60.83C117.15 60.46 117.11 59.93 117.11 59.23C117.11 58.76 117.12 58.37 117.16 58.05C117.19 57.73 117.24 57.47 117.31 57.28C117.38 57.08 117.47 56.94 117.58 56.86C117.69 56.78 117.83 56.74 117.98 56.74C118.19 56.74 118.49 56.86 118.88 57.11C119.27 57.36 119.76 57.64 120.37 57.94C120.98 58.24 121.7 58.52 122.54 58.77C123.38 59.02 124.35 59.15 125.46 59.15C126.19 59.15 126.84 59.06 127.41 58.89C127.99 58.72 128.47 58.47 128.87 58.15C129.27 57.83 129.58 57.44 129.79 56.97C130 56.5 130.11 55.98 130.11 55.4C130.11 54.73 129.93 54.16 129.56 53.69C129.2 53.21 128.72 52.79 128.14 52.42C127.56 52.05 126.89 51.7 126.15 51.38C125.41 51.05 124.64 50.71 123.86 50.35C123.07 49.99 122.31 49.57 121.57 49.11C120.83 48.65 120.17 48.1 119.58 47.45C119 46.81 118.52 46.05 118.16 45.17C117.8 44.29 117.62 43.24 117.62 42.01C117.62 40.6 117.88 39.36 118.4 38.3C118.92 37.23 119.63 36.35 120.51 35.64C121.4 34.94 122.44 34.41 123.64 34.06C124.84 33.71 126.12 33.54 127.47 33.54C128.17 33.54 128.86 33.59 129.56 33.7C130.26 33.81 130.91 33.95 131.51 34.13C132.11 34.31 132.65 34.52 133.12 34.74C133.59 34.97 133.9 35.16 134.05 35.31C134.2 35.46 134.3 35.59 134.36 35.7C134.41 35.81 134.46 35.95 134.5 36.12C134.54 36.29 134.56 36.51 134.58 36.78C134.6 37.05 134.6 37.37 134.6 37.77C134.6 38.21 134.59 38.58 134.57 38.88C134.55 39.18 134.51 39.43 134.46 39.63C134.41 39.83 134.33 39.97 134.23 40.06C134.13 40.15 134 40.2 133.83 40.2C133.66 40.2 133.4 40.09 133.04 39.88C132.68 39.67 132.23 39.44 131.7 39.19C131.17 38.94 130.56 38.71 129.86 38.51C129.16 38.31 128.4 38.2 127.57 38.2C126.92 38.2 126.35 38.28 125.87 38.44C125.39 38.6 124.98 38.82 124.66 39.1C124.33 39.38 124.09 39.72 123.93 40.11C123.77 40.5 123.69 40.92 123.69 41.36C123.69 42.01 123.87 42.57 124.22 43.05C124.58 43.53 125.05 43.95 125.65 44.32C126.25 44.69 126.93 45.04 127.68 45.36C128.44 45.69 129.21 46.03 130 46.39C130.79 46.75 131.56 47.17 132.32 47.63C133.08 48.09 133.75 48.64 134.34 49.29C134.93 49.93 135.41 50.69 135.77 51.56C136.13 52.43 136.31 53.46 136.31 54.64L136.29 54.62Z" fill="#079B9B"/>
<path d="M146.67 35.54C146.67 36.69 146.44 37.49 145.97 37.92C145.5 38.36 144.63 38.58 143.36 38.58C142.09 38.58 141.21 38.37 140.76 37.94C140.31 37.52 140.09 36.75 140.09 35.65C140.09 34.55 140.32 33.7 140.78 33.25C141.24 32.8 142.12 32.58 143.4 32.58C144.68 32.58 145.53 32.8 145.99 33.23C146.44 33.66 146.67 34.43 146.67 35.53V35.54ZM146.24 62.65C146.24 62.8 146.19 62.93 146.1 63.05C146.01 63.16 145.85 63.26 145.63 63.33C145.41 63.41 145.12 63.46 144.76 63.5C144.4 63.54 143.93 63.56 143.37 63.56C142.81 63.56 142.35 63.54 141.98 63.5C141.62 63.46 141.33 63.41 141.11 63.33C140.89 63.25 140.74 63.16 140.64 63.05C140.55 62.94 140.5 62.8 140.5 62.65V42.44C140.5 42.29 140.55 42.16 140.64 42.04C140.73 41.93 140.89 41.83 141.11 41.74C141.33 41.66 141.62 41.59 141.98 41.55C142.34 41.51 142.81 41.48 143.37 41.48C143.93 41.48 144.39 41.5 144.76 41.55C145.13 41.6 145.41 41.66 145.63 41.74C145.85 41.82 146.01 41.92 146.1 42.04C146.19 42.15 146.24 42.29 146.24 42.44V62.65Z" fill="#079B9B"/>
<path d="M166.2 56.93C166.2 58.08 165.98 59.1 165.55 59.97C165.12 60.85 164.51 61.58 163.72 62.17C162.93 62.76 162 63.2 160.93 63.5C159.85 63.79 158.69 63.94 157.43 63.94C156.67 63.94 155.95 63.88 155.26 63.77C154.57 63.66 153.95 63.51 153.41 63.34C152.87 63.17 152.41 62.99 152.05 62.81C151.69 62.63 151.42 62.46 151.26 62.3C151.1 62.14 150.97 61.89 150.87 61.55C150.78 61.21 150.73 60.71 150.73 60.04C150.73 59.6 150.74 59.25 150.78 58.98C150.81 58.72 150.86 58.5 150.92 58.34C150.98 58.18 151.06 58.08 151.15 58.02C151.24 57.97 151.35 57.94 151.49 57.94C151.66 57.94 151.9 58.03 152.23 58.22C152.56 58.41 152.96 58.62 153.44 58.84C153.92 59.07 154.49 59.28 155.13 59.48C155.77 59.68 156.5 59.77 157.32 59.77C157.83 59.77 158.29 59.72 158.69 59.61C159.09 59.5 159.44 59.35 159.73 59.16C160.02 58.97 160.25 58.71 160.4 58.41C160.55 58.11 160.63 57.76 160.63 57.37C160.63 56.92 160.49 56.53 160.21 56.2C159.93 55.87 159.56 55.59 159.1 55.35C158.64 55.11 158.12 54.88 157.53 54.67C156.95 54.46 156.35 54.22 155.74 53.97C155.13 53.71 154.53 53.42 153.95 53.08C153.37 52.75 152.85 52.34 152.38 51.85C151.92 51.37 151.55 50.78 151.27 50.1C150.99 49.42 150.85 48.6 150.85 47.65C150.85 46.7 151.04 45.79 151.42 44.98C151.8 44.17 152.34 43.48 153.05 42.9C153.76 42.32 154.63 41.88 155.65 41.56C156.67 41.24 157.82 41.08 159.09 41.08C159.73 41.08 160.34 41.13 160.94 41.22C161.54 41.31 162.08 41.42 162.56 41.56C163.04 41.7 163.45 41.84 163.79 42C164.12 42.16 164.36 42.3 164.51 42.41C164.65 42.52 164.76 42.64 164.82 42.75C164.88 42.86 164.93 43 164.96 43.16C164.99 43.32 165.02 43.52 165.04 43.75C165.06 43.98 165.07 44.28 165.07 44.62C165.07 45.03 165.06 45.36 165.04 45.62C165.02 45.88 164.98 46.08 164.93 46.23C164.88 46.38 164.81 46.48 164.71 46.54C164.62 46.59 164.51 46.62 164.39 46.62C164.25 46.62 164.04 46.54 163.75 46.38C163.46 46.22 163.1 46.05 162.67 45.87C162.24 45.69 161.74 45.52 161.17 45.36C160.6 45.2 159.96 45.12 159.23 45.12C158.71 45.12 158.27 45.17 157.89 45.28C157.51 45.39 157.2 45.54 156.96 45.73C156.72 45.93 156.54 46.16 156.42 46.42C156.3 46.68 156.24 46.97 156.24 47.27C156.24 47.74 156.38 48.13 156.67 48.45C156.96 48.77 157.34 49.05 157.81 49.29C158.28 49.53 158.81 49.76 159.41 49.97C160.01 50.18 160.61 50.41 161.23 50.66C161.84 50.91 162.45 51.2 163.05 51.53C163.65 51.86 164.18 52.27 164.65 52.76C165.12 53.24 165.5 53.82 165.79 54.5C166.08 55.17 166.22 55.97 166.22 56.9L166.2 56.93Z" fill="#079B9B"/>
<path d="M184.75 56.93C184.75 58.08 184.53 59.1 184.1 59.97C183.67 60.85 183.06 61.58 182.27 62.17C181.48 62.76 180.55 63.2 179.48 63.5C178.4 63.79 177.24 63.94 175.98 63.94C175.22 63.94 174.5 63.88 173.81 63.77C173.12 63.66 172.5 63.51 171.96 63.34C171.42 63.17 170.96 62.99 170.6 62.81C170.24 62.63 169.97 62.46 169.81 62.3C169.65 62.14 169.52 61.89 169.42 61.55C169.33 61.21 169.28 60.71 169.28 60.04C169.28 59.6 169.29 59.25 169.33 58.98C169.36 58.72 169.41 58.5 169.47 58.34C169.53 58.18 169.61 58.08 169.7 58.02C169.79 57.97 169.9 57.94 170.04 57.94C170.21 57.94 170.45 58.03 170.78 58.22C171.11 58.41 171.51 58.62 171.99 58.84C172.47 59.07 173.04 59.28 173.68 59.48C174.32 59.68 175.05 59.77 175.87 59.77C176.38 59.77 176.84 59.72 177.24 59.61C177.64 59.5 177.99 59.35 178.28 59.16C178.57 58.97 178.8 58.71 178.95 58.41C179.1 58.11 179.18 57.76 179.18 57.37C179.18 56.92 179.04 56.53 178.76 56.2C178.48 55.87 178.11 55.59 177.65 55.35C177.19 55.11 176.67 54.88 176.08 54.67C175.5 54.46 174.9 54.22 174.29 53.97C173.68 53.71 173.08 53.42 172.5 53.08C171.92 52.75 171.4 52.34 170.93 51.85C170.47 51.37 170.1 50.78 169.82 50.1C169.54 49.42 169.4 48.6 169.4 47.65C169.4 46.7 169.59 45.79 169.97 44.98C170.35 44.17 170.89 43.48 171.6 42.9C172.31 42.32 173.18 41.88 174.2 41.56C175.22 41.24 176.37 41.08 177.64 41.08C178.28 41.08 178.89 41.13 179.49 41.22C180.09 41.31 180.63 41.42 181.11 41.56C181.59 41.7 182 41.84 182.34 42C182.67 42.16 182.91 42.3 183.06 42.41C183.2 42.52 183.31 42.64 183.37 42.75C183.43 42.86 183.48 43 183.51 43.16C183.54 43.32 183.57 43.52 183.59 43.75C183.61 43.98 183.62 44.28 183.62 44.62C183.62 45.03 183.61 45.36 183.59 45.62C183.57 45.88 183.53 46.08 183.48 46.23C183.43 46.38 183.36 46.48 183.26 46.54C183.17 46.59 183.06 46.62 182.94 46.62C182.8 46.62 182.59 46.54 182.3 46.38C182.01 46.22 181.65 46.05 181.22 45.87C180.79 45.69 180.29 45.52 179.72 45.36C179.15 45.2 178.51 45.12 177.78 45.12C177.26 45.12 176.82 45.17 176.44 45.28C176.06 45.39 175.75 45.54 175.51 45.73C175.27 45.93 175.09 46.16 174.97 46.42C174.85 46.68 174.79 46.97 174.79 47.27C174.79 47.74 174.93 48.13 175.22 48.45C175.51 48.77 175.89 49.05 176.36 49.29C176.83 49.53 177.36 49.76 177.96 49.97C178.56 50.18 179.16 50.41 179.78 50.66C180.39 50.91 181 51.2 181.6 51.53C182.2 51.86 182.73 52.27 183.2 52.76C183.67 53.24 184.05 53.82 184.34 54.5C184.63 55.17 184.77 55.97 184.77 56.9L184.75 56.93Z" fill="#079B9B"/>
<path d="M200.08 63.43L197.63 70.61C197.49 70.99 197.12 71.26 196.52 71.43C195.91 71.6 195.03 71.68 193.86 71.68C193.25 71.68 192.77 71.65 192.41 71.6C192.05 71.55 191.77 71.46 191.59 71.34C191.41 71.22 191.31 71.07 191.29 70.89C191.27 70.71 191.32 70.49 191.43 70.23L194.13 63.44C193.93 63.35 193.76 63.21 193.6 63.02C193.44 62.83 193.32 62.63 193.25 62.42L186.28 43.8C186.08 43.27 185.98 42.87 185.98 42.59C185.98 42.31 186.07 42.09 186.25 41.93C186.43 41.77 186.74 41.66 187.17 41.6C187.6 41.54 188.17 41.51 188.88 41.51C189.53 41.51 190.05 41.52 190.42 41.54C190.8 41.56 191.09 41.62 191.31 41.71C191.52 41.8 191.68 41.94 191.79 42.13C191.9 42.32 192 42.59 192.11 42.94L196.88 56.5H196.95L201.31 42.67C201.4 42.28 201.52 42.02 201.66 41.89C201.8 41.76 202.04 41.67 202.38 41.61C202.71 41.55 203.3 41.52 204.13 41.52C204.78 41.52 205.32 41.55 205.75 41.61C206.18 41.67 206.5 41.78 206.7 41.95C206.9 42.12 207.01 42.34 207.01 42.62C207.01 42.9 206.95 43.23 206.83 43.61L200.09 63.46L200.08 63.43Z" fill="#079B9B"/>
<path d="M219.13 60.45C219.13 61.07 219.08 61.59 218.98 62.02C218.88 62.44 218.71 62.78 218.46 63.04C218.21 63.3 217.88 63.48 217.47 63.6C217.06 63.71 216.55 63.77 215.93 63.77C215.31 63.77 214.79 63.71 214.37 63.6C213.95 63.49 213.62 63.3 213.38 63.04C213.14 62.78 212.97 62.44 212.87 62.02C212.77 61.6 212.72 61.07 212.72 60.45C212.72 59.83 212.77 59.28 212.87 58.85C212.97 58.42 213.14 58.07 213.38 57.81C213.62 57.55 213.95 57.36 214.37 57.24C214.79 57.13 215.3 57.07 215.93 57.07C216.56 57.07 217.07 57.13 217.47 57.24C217.88 57.35 218.21 57.54 218.46 57.81C218.71 58.08 218.88 58.42 218.98 58.85C219.08 59.28 219.13 59.82 219.13 60.45ZM218.43 53.8C218.41 53.95 218.37 54.09 218.29 54.21C218.21 54.33 218.08 54.43 217.89 54.52C217.7 54.6 217.44 54.67 217.12 54.71C216.79 54.76 216.4 54.78 215.93 54.78C215.46 54.78 215.04 54.76 214.73 54.71C214.41 54.66 214.16 54.6 213.97 54.52C213.78 54.44 213.65 54.33 213.57 54.21C213.49 54.09 213.45 53.95 213.43 53.8L212.84 33.18C212.84 32.98 212.89 32.81 212.98 32.66C213.07 32.51 213.23 32.38 213.47 32.29C213.7 32.19 214.02 32.12 214.42 32.07C214.82 32.02 215.32 32 215.93 32C216.54 32 217.03 32.03 217.43 32.08C217.82 32.13 218.14 32.21 218.37 32.31C218.6 32.41 218.77 32.53 218.87 32.67C218.97 32.81 219.02 32.98 219.02 33.18L218.43 53.8Z" fill="#079B9B"/>
</svg>
